<mxfile host="app.diagrams.net" modified="2023-01-08T09:51:12.688Z" agent="5.0 (Windows NT 10.0; Win64; x64) AppleWebKit/537.36 (KHTML, like Gecko) Chrome/108.0.0.0 Safari/537.36" etag="FmHUKKQMHGu4sUYkSZWe" version="20.8.3" type="github">
  <diagram id="C5RBs43oDa-KdzZeNtuy" name="Page-1">
    <mxGraphModel dx="1195" dy="622" grid="1" gridSize="10" guides="1" tooltips="1" connect="1" arrows="1" fold="1" page="1" pageScale="1" pageWidth="827" pageHeight="1169" math="0" shadow="0">
      <root>
        <mxCell id="WIyWlLk6GJQsqaUBKTNV-0" />
        <mxCell id="WIyWlLk6GJQsqaUBKTNV-1" parent="WIyWlLk6GJQsqaUBKTNV-0" />
        <mxCell id="UWT-Dc0lmw1-DeujJf5R-1" value="&lt;p style=&quot;margin:0px;margin-top:4px;text-align:center;&quot;&gt;&lt;i&gt;&amp;lt;&amp;lt;接口&amp;gt;&amp;gt;&lt;/i&gt;&lt;br&gt;&lt;b&gt;BeanFactory&lt;/b&gt;&lt;/p&gt;&lt;hr size=&quot;1&quot;&gt;&lt;p style=&quot;margin:0px;margin-left:4px;&quot;&gt;&lt;br&gt;&lt;/p&gt;&lt;hr size=&quot;1&quot;&gt;&lt;p style=&quot;margin:0px;margin-left:4px;&quot;&gt;+ getBean(String name)&lt;/p&gt;" style="verticalAlign=top;align=left;overflow=fill;fontSize=12;fontFamily=Helvetica;html=1;fillColor=#dae8fc;strokeColor=#6c8ebf;" vertex="1" parent="WIyWlLk6GJQsqaUBKTNV-1">
          <mxGeometry x="180" y="110" width="190" height="140" as="geometry" />
        </mxCell>
        <mxCell id="UWT-Dc0lmw1-DeujJf5R-6" style="edgeStyle=orthogonalEdgeStyle;rounded=0;orthogonalLoop=1;jettySize=auto;html=1;exitX=0.5;exitY=0;exitDx=0;exitDy=0;entryX=0.5;entryY=1;entryDx=0;entryDy=0;endArrow=block;endFill=0;dashed=1;startArrow=none;" edge="1" parent="WIyWlLk6GJQsqaUBKTNV-1" source="UWT-Dc0lmw1-DeujJf5R-31" target="UWT-Dc0lmw1-DeujJf5R-1">
          <mxGeometry relative="1" as="geometry" />
        </mxCell>
        <mxCell id="UWT-Dc0lmw1-DeujJf5R-2" value="AbstractBeanFactory" style="swimlane;fontStyle=1;align=center;verticalAlign=top;childLayout=stackLayout;horizontal=1;startSize=26;horizontalStack=0;resizeParent=1;resizeParentMax=0;resizeLast=0;collapsible=1;marginBottom=0;fillColor=#ffe6cc;strokeColor=#d79b00;" vertex="1" parent="WIyWlLk6GJQsqaUBKTNV-1">
          <mxGeometry x="90" y="330" width="370" height="110" as="geometry" />
        </mxCell>
        <mxCell id="UWT-Dc0lmw1-DeujJf5R-4" value="" style="line;strokeWidth=1;fillColor=none;align=left;verticalAlign=middle;spacingTop=-1;spacingLeft=3;spacingRight=3;rotatable=0;labelPosition=right;points=[];portConstraint=eastwest;strokeColor=inherit;" vertex="1" parent="UWT-Dc0lmw1-DeujJf5R-2">
          <mxGeometry y="26" width="370" height="8" as="geometry" />
        </mxCell>
        <mxCell id="UWT-Dc0lmw1-DeujJf5R-5" value="+ getBean(String name)&#xa;# getBeanDefinition(String name)&#xa;#createBean(String beanName，BeanDefinition beanDefinition)&#xa;" style="text;strokeColor=none;fillColor=none;align=left;verticalAlign=top;spacingLeft=4;spacingRight=4;overflow=hidden;rotatable=0;points=[[0,0.5],[1,0.5]];portConstraint=eastwest;" vertex="1" parent="UWT-Dc0lmw1-DeujJf5R-2">
          <mxGeometry y="34" width="370" height="76" as="geometry" />
        </mxCell>
        <mxCell id="UWT-Dc0lmw1-DeujJf5R-37" style="edgeStyle=orthogonalEdgeStyle;rounded=0;orthogonalLoop=1;jettySize=auto;html=1;exitX=0.5;exitY=0;exitDx=0;exitDy=0;entryX=0.5;entryY=1;entryDx=0;entryDy=0;entryPerimeter=0;endArrow=block;endFill=0;startArrow=none;" edge="1" parent="WIyWlLk6GJQsqaUBKTNV-1" source="UWT-Dc0lmw1-DeujJf5R-38" target="UWT-Dc0lmw1-DeujJf5R-5">
          <mxGeometry relative="1" as="geometry" />
        </mxCell>
        <mxCell id="UWT-Dc0lmw1-DeujJf5R-7" value="AbstractAutowriteCapableBeanFactory" style="swimlane;fontStyle=1;align=center;verticalAlign=top;childLayout=stackLayout;horizontal=1;startSize=26;horizontalStack=0;resizeParent=1;resizeParentMax=0;resizeLast=0;collapsible=1;marginBottom=0;fillColor=#1ba1e2;fontColor=#ffffff;strokeColor=#006EAF;" vertex="1" parent="WIyWlLk6GJQsqaUBKTNV-1">
          <mxGeometry x="90" y="520" width="370" height="110" as="geometry" />
        </mxCell>
        <mxCell id="UWT-Dc0lmw1-DeujJf5R-8" value="" style="line;strokeWidth=1;fillColor=none;align=left;verticalAlign=middle;spacingTop=-1;spacingLeft=3;spacingRight=3;rotatable=0;labelPosition=right;points=[];portConstraint=eastwest;strokeColor=inherit;" vertex="1" parent="UWT-Dc0lmw1-DeujJf5R-7">
          <mxGeometry y="26" width="370" height="8" as="geometry" />
        </mxCell>
        <mxCell id="UWT-Dc0lmw1-DeujJf5R-9" value="+ getBean(String name)&#xa;# getBeanDefinition(String name)&#xa;#createBean(String beanName，BeanDefinition beanDefinition)&#xa;" style="text;strokeColor=none;fillColor=none;align=left;verticalAlign=top;spacingLeft=4;spacingRight=4;overflow=hidden;rotatable=0;points=[[0,0.5],[1,0.5]];portConstraint=eastwest;" vertex="1" parent="UWT-Dc0lmw1-DeujJf5R-7">
          <mxGeometry y="34" width="370" height="76" as="geometry" />
        </mxCell>
        <mxCell id="UWT-Dc0lmw1-DeujJf5R-11" value="&lt;p style=&quot;margin:0px;margin-top:4px;text-align:center;&quot;&gt;&lt;i&gt;&amp;lt;&amp;lt;接口&amp;gt;&amp;gt;&lt;/i&gt;&lt;br&gt;SingleLetonRegistery&lt;/p&gt;&lt;hr size=&quot;1&quot;&gt;&lt;p style=&quot;margin:0px;margin-left:4px;&quot;&gt;&lt;br&gt;&lt;/p&gt;&lt;hr size=&quot;1&quot;&gt;&lt;p style=&quot;margin:0px;margin-left:4px;&quot;&gt;+ getSingleton(String name)&lt;/p&gt;" style="verticalAlign=top;align=left;overflow=fill;fontSize=12;fontFamily=Helvetica;html=1;fillColor=#d5e8d4;strokeColor=#82b366;" vertex="1" parent="WIyWlLk6GJQsqaUBKTNV-1">
          <mxGeometry x="680" y="100" width="190" height="140" as="geometry" />
        </mxCell>
        <mxCell id="UWT-Dc0lmw1-DeujJf5R-34" style="edgeStyle=orthogonalEdgeStyle;rounded=0;orthogonalLoop=1;jettySize=auto;html=1;exitX=0.5;exitY=0;exitDx=0;exitDy=0;entryX=0.5;entryY=1;entryDx=0;entryDy=0;dashed=1;endArrow=block;endFill=0;" edge="1" parent="WIyWlLk6GJQsqaUBKTNV-1" source="UWT-Dc0lmw1-DeujJf5R-12" target="UWT-Dc0lmw1-DeujJf5R-11">
          <mxGeometry relative="1" as="geometry" />
        </mxCell>
        <mxCell id="UWT-Dc0lmw1-DeujJf5R-35" value="实现" style="edgeLabel;html=1;align=center;verticalAlign=middle;resizable=0;points=[];" vertex="1" connectable="0" parent="UWT-Dc0lmw1-DeujJf5R-34">
          <mxGeometry x="0.2111" y="3" relative="1" as="geometry">
            <mxPoint as="offset" />
          </mxGeometry>
        </mxCell>
        <mxCell id="UWT-Dc0lmw1-DeujJf5R-12" value="DefaultSingletonBeanRegistry" style="swimlane;fontStyle=1;align=center;verticalAlign=top;childLayout=stackLayout;horizontal=1;startSize=50;horizontalStack=0;resizeParent=1;resizeParentMax=0;resizeLast=0;collapsible=1;marginBottom=0;fillColor=#ffe6cc;strokeColor=#d79b00;" vertex="1" parent="WIyWlLk6GJQsqaUBKTNV-1">
          <mxGeometry x="595" y="320" width="370" height="164" as="geometry" />
        </mxCell>
        <mxCell id="UWT-Dc0lmw1-DeujJf5R-15" value="-singletonObjects:Map&amp;lt;String,Object&amp;gt;" style="text;html=1;strokeColor=none;fillColor=none;align=left;verticalAlign=middle;whiteSpace=wrap;rounded=0;" vertex="1" parent="UWT-Dc0lmw1-DeujJf5R-12">
          <mxGeometry y="50" width="370" height="30" as="geometry" />
        </mxCell>
        <mxCell id="UWT-Dc0lmw1-DeujJf5R-13" value="" style="line;strokeWidth=1;fillColor=none;align=left;verticalAlign=middle;spacingTop=-1;spacingLeft=3;spacingRight=3;rotatable=0;labelPosition=right;points=[];portConstraint=eastwest;strokeColor=inherit;" vertex="1" parent="UWT-Dc0lmw1-DeujJf5R-12">
          <mxGeometry y="80" width="370" height="8" as="geometry" />
        </mxCell>
        <mxCell id="UWT-Dc0lmw1-DeujJf5R-14" value="+ getSingleton(String name)&#xa;+ addSingleton(String beanName,Object singletonObject)" style="text;strokeColor=none;fillColor=none;align=left;verticalAlign=top;spacingLeft=4;spacingRight=4;overflow=hidden;rotatable=0;points=[[0,0.5],[1,0.5]];portConstraint=eastwest;" vertex="1" parent="UWT-Dc0lmw1-DeujJf5R-12">
          <mxGeometry y="88" width="370" height="76" as="geometry" />
        </mxCell>
        <mxCell id="UWT-Dc0lmw1-DeujJf5R-16" value="&lt;p style=&quot;margin:0px;margin-top:4px;text-align:center;&quot;&gt;&lt;i&gt;&amp;lt;&amp;lt;接口&amp;gt;&amp;gt;&lt;/i&gt;&lt;br&gt;&lt;b&gt;BeanDefinitionRegisty&lt;/b&gt;&lt;/p&gt;&lt;hr size=&quot;1&quot;&gt;&lt;p style=&quot;margin:0px;margin-left:4px;&quot;&gt;&lt;br&gt;&lt;/p&gt;&lt;hr size=&quot;1&quot;&gt;&lt;p style=&quot;margin:0px;margin-left:4px;&quot;&gt;+ registerBeanDefinition(String name,BeanDefinition beanDefinition)&lt;/p&gt;" style="verticalAlign=top;align=left;overflow=fill;fontSize=12;fontFamily=Helvetica;html=1;fillColor=#dae8fc;strokeColor=#6c8ebf;" vertex="1" parent="WIyWlLk6GJQsqaUBKTNV-1">
          <mxGeometry x="595" y="640" width="400" height="150" as="geometry" />
        </mxCell>
        <mxCell id="UWT-Dc0lmw1-DeujJf5R-44" style="endArrow=classic;html=1;fontFamily=Helvetica;fontSize=11;fontColor=default;align=center;endFill=0;strokeColor=default;edgeStyle=orthogonalEdgeStyle;" edge="1" parent="WIyWlLk6GJQsqaUBKTNV-1" source="UWT-Dc0lmw1-DeujJf5R-17">
          <mxGeometry relative="1" as="geometry">
            <mxPoint x="275" y="630" as="targetPoint" />
            <Array as="points">
              <mxPoint x="275" y="720" />
              <mxPoint x="275" y="720" />
            </Array>
          </mxGeometry>
        </mxCell>
        <mxCell id="UWT-Dc0lmw1-DeujJf5R-48" value="继承" style="edgeLabel;html=1;align=center;verticalAlign=middle;resizable=0;points=[];" vertex="1" connectable="0" parent="UWT-Dc0lmw1-DeujJf5R-44">
          <mxGeometry x="0.3" y="-2" relative="1" as="geometry">
            <mxPoint as="offset" />
          </mxGeometry>
        </mxCell>
        <mxCell id="UWT-Dc0lmw1-DeujJf5R-55" style="edgeStyle=orthogonalEdgeStyle;rounded=1;orthogonalLoop=1;jettySize=auto;html=1;exitX=0.75;exitY=0;exitDx=0;exitDy=0;entryX=0;entryY=0.5;entryDx=0;entryDy=0;dashed=1;endArrow=block;endFill=0;" edge="1" parent="WIyWlLk6GJQsqaUBKTNV-1" source="UWT-Dc0lmw1-DeujJf5R-17" target="UWT-Dc0lmw1-DeujJf5R-16">
          <mxGeometry relative="1" as="geometry" />
        </mxCell>
        <mxCell id="UWT-Dc0lmw1-DeujJf5R-56" value="实现" style="edgeLabel;html=1;align=center;verticalAlign=middle;resizable=0;points=[];" vertex="1" connectable="0" parent="UWT-Dc0lmw1-DeujJf5R-55">
          <mxGeometry x="0.4286" y="1" relative="1" as="geometry">
            <mxPoint as="offset" />
          </mxGeometry>
        </mxCell>
        <mxCell id="UWT-Dc0lmw1-DeujJf5R-17" value="DefaultListableBeanFactory&#xa;核心实现类" style="swimlane;fontStyle=1;align=center;verticalAlign=top;childLayout=stackLayout;horizontal=1;startSize=50;horizontalStack=0;resizeParent=1;resizeParentMax=0;resizeLast=0;collapsible=1;marginBottom=0;fillColor=#ffe6cc;strokeColor=#d79b00;" vertex="1" parent="WIyWlLk6GJQsqaUBKTNV-1">
          <mxGeometry x="60" y="800" width="430" height="164" as="geometry" />
        </mxCell>
        <mxCell id="UWT-Dc0lmw1-DeujJf5R-18" value="- beanDefinitionMap&amp;lt;String,BeanDefinition&amp;gt;" style="text;html=1;strokeColor=none;fillColor=none;align=left;verticalAlign=middle;whiteSpace=wrap;rounded=0;" vertex="1" parent="UWT-Dc0lmw1-DeujJf5R-17">
          <mxGeometry y="50" width="430" height="30" as="geometry" />
        </mxCell>
        <mxCell id="UWT-Dc0lmw1-DeujJf5R-19" value="" style="line;strokeWidth=1;fillColor=none;align=left;verticalAlign=middle;spacingTop=-1;spacingLeft=3;spacingRight=3;rotatable=0;labelPosition=right;points=[];portConstraint=eastwest;strokeColor=inherit;" vertex="1" parent="UWT-Dc0lmw1-DeujJf5R-17">
          <mxGeometry y="80" width="430" height="8" as="geometry" />
        </mxCell>
        <mxCell id="UWT-Dc0lmw1-DeujJf5R-20" value="+ regiserBeanDefinition(String beanName,BeanDefinition beanDefinition&gt;&#xa;+ getBeanDefiniton(String beanName)" style="text;strokeColor=none;fillColor=none;align=left;verticalAlign=top;spacingLeft=4;spacingRight=4;overflow=hidden;rotatable=0;points=[[0,0.5],[1,0.5]];portConstraint=eastwest;" vertex="1" parent="UWT-Dc0lmw1-DeujJf5R-17">
          <mxGeometry y="88" width="430" height="76" as="geometry" />
        </mxCell>
        <mxCell id="UWT-Dc0lmw1-DeujJf5R-22" value="BeanDefiniton" style="swimlane;fontStyle=1;align=center;verticalAlign=top;childLayout=stackLayout;horizontal=1;startSize=26;horizontalStack=0;resizeParent=1;resizeParentMax=0;resizeLast=0;collapsible=1;marginBottom=0;fillColor=#f8cecc;strokeColor=#b85450;" vertex="1" parent="WIyWlLk6GJQsqaUBKTNV-1">
          <mxGeometry x="700" y="862" width="160" height="60" as="geometry" />
        </mxCell>
        <mxCell id="UWT-Dc0lmw1-DeujJf5R-23" value="- beanclass :Class" style="text;strokeColor=none;fillColor=none;align=left;verticalAlign=top;spacingLeft=4;spacingRight=4;overflow=hidden;rotatable=0;points=[[0,0.5],[1,0.5]];portConstraint=eastwest;" vertex="1" parent="UWT-Dc0lmw1-DeujJf5R-22">
          <mxGeometry y="26" width="160" height="26" as="geometry" />
        </mxCell>
        <mxCell id="UWT-Dc0lmw1-DeujJf5R-24" value="" style="line;strokeWidth=1;fillColor=none;align=left;verticalAlign=middle;spacingTop=-1;spacingLeft=3;spacingRight=3;rotatable=0;labelPosition=right;points=[];portConstraint=eastwest;strokeColor=inherit;" vertex="1" parent="UWT-Dc0lmw1-DeujJf5R-22">
          <mxGeometry y="52" width="160" height="8" as="geometry" />
        </mxCell>
        <mxCell id="UWT-Dc0lmw1-DeujJf5R-33" value="" style="edgeStyle=orthogonalEdgeStyle;rounded=0;orthogonalLoop=1;jettySize=auto;html=1;exitX=0.5;exitY=0;exitDx=0;exitDy=0;entryX=0.5;entryY=1;entryDx=0;entryDy=0;endArrow=none;endFill=0;dashed=1;" edge="1" parent="WIyWlLk6GJQsqaUBKTNV-1" source="UWT-Dc0lmw1-DeujJf5R-2" target="UWT-Dc0lmw1-DeujJf5R-31">
          <mxGeometry relative="1" as="geometry">
            <mxPoint x="275" y="329.9999999999999" as="sourcePoint" />
            <mxPoint x="275" y="250.0000000000001" as="targetPoint" />
          </mxGeometry>
        </mxCell>
        <mxCell id="UWT-Dc0lmw1-DeujJf5R-31" value="实现" style="text;html=1;strokeColor=none;fillColor=none;align=center;verticalAlign=middle;whiteSpace=wrap;rounded=0;" vertex="1" parent="WIyWlLk6GJQsqaUBKTNV-1">
          <mxGeometry x="245" y="270" width="60" height="30" as="geometry" />
        </mxCell>
        <mxCell id="UWT-Dc0lmw1-DeujJf5R-39" value="" style="edgeStyle=orthogonalEdgeStyle;rounded=0;orthogonalLoop=1;jettySize=auto;html=1;exitX=0.5;exitY=0;exitDx=0;exitDy=0;entryX=0.5;entryY=1;entryDx=0;entryDy=0;entryPerimeter=0;endArrow=none;endFill=0;" edge="1" parent="WIyWlLk6GJQsqaUBKTNV-1" source="UWT-Dc0lmw1-DeujJf5R-7" target="UWT-Dc0lmw1-DeujJf5R-38">
          <mxGeometry relative="1" as="geometry">
            <mxPoint x="275" y="510" as="sourcePoint" />
            <mxPoint x="275" y="440.0000000000002" as="targetPoint" />
          </mxGeometry>
        </mxCell>
        <mxCell id="UWT-Dc0lmw1-DeujJf5R-38" value="继承" style="text;html=1;align=center;verticalAlign=middle;resizable=0;points=[];autosize=1;strokeColor=none;fillColor=none;" vertex="1" parent="WIyWlLk6GJQsqaUBKTNV-1">
          <mxGeometry x="250" y="464" width="50" height="30" as="geometry" />
        </mxCell>
        <mxCell id="UWT-Dc0lmw1-DeujJf5R-40" style="edgeStyle=orthogonalEdgeStyle;rounded=0;orthogonalLoop=1;jettySize=auto;html=1;exitX=1;exitY=0.5;exitDx=0;exitDy=0;entryX=0;entryY=0.5;entryDx=0;entryDy=0;endArrow=block;endFill=0;" edge="1" parent="WIyWlLk6GJQsqaUBKTNV-1" source="UWT-Dc0lmw1-DeujJf5R-5" target="UWT-Dc0lmw1-DeujJf5R-12">
          <mxGeometry relative="1" as="geometry" />
        </mxCell>
        <mxCell id="UWT-Dc0lmw1-DeujJf5R-41" value="继承" style="edgeLabel;html=1;align=center;verticalAlign=middle;resizable=0;points=[];" vertex="1" connectable="0" parent="UWT-Dc0lmw1-DeujJf5R-40">
          <mxGeometry x="-0.1358" y="2" relative="1" as="geometry">
            <mxPoint as="offset" />
          </mxGeometry>
        </mxCell>
        <mxCell id="UWT-Dc0lmw1-DeujJf5R-49" style="edgeStyle=orthogonalEdgeStyle;rounded=0;orthogonalLoop=1;jettySize=auto;html=1;exitX=1;exitY=0.5;exitDx=0;exitDy=0;endArrow=open;endFill=0;dashed=1;" edge="1" parent="WIyWlLk6GJQsqaUBKTNV-1" source="UWT-Dc0lmw1-DeujJf5R-18" target="UWT-Dc0lmw1-DeujJf5R-23">
          <mxGeometry relative="1" as="geometry" />
        </mxCell>
        <mxCell id="UWT-Dc0lmw1-DeujJf5R-50" value="依赖" style="edgeLabel;html=1;align=center;verticalAlign=middle;resizable=0;points=[];" vertex="1" connectable="0" parent="UWT-Dc0lmw1-DeujJf5R-49">
          <mxGeometry x="-0.1949" relative="1" as="geometry">
            <mxPoint as="offset" />
          </mxGeometry>
        </mxCell>
      </root>
    </mxGraphModel>
  </diagram>
</mxfile>
